<?xml version="1.0" standalone="no"?>
<!DOCTYPE svg PUBLIC "-//W3C//DTD SVG 20010904//EN"
 "http://www.w3.org/TR/2001/REC-SVG-20010904/DTD/svg10.dtd">
<svg version="1.0" xmlns="http://www.w3.org/2000/svg"
 width="512.000000pt" height="512.000000pt" viewBox="0 0 512.000000 512.000000"
 preserveAspectRatio="xMidYMid meet">
<metadata>
Created by potrace 1.14, written by Peter Selinger 2001-2017
</metadata>
<g transform="translate(0.000000,512.000000) scale(0.100000,-0.100000)"
fill="#000000" stroke="none">
<path d="M2395 5096 c-268 -75 -492 -298 -680 -676 -29 -58 -63 -131 -76 -163
l-23 -59 -71 7 c-38 4 -79 9 -90 12 -11 2 -94 6 -185 8 -267 5 -468 -33 -642
-121 -78 -39 -106 -61 -188 -144 -82 -83 -133 -171 -165 -290 -21 -76 -23
-231 -5 -330 38 -210 160 -461 334 -693 l65 -86 -65 -88 c-137 -183 -246 -384
-298 -550 -103 -329 -47 -602 164 -796 80 -72 191 -135 305 -170 91 -29 128
-37 236 -53 67 -10 364 -11 439 -2 30 4 80 10 110 13 l55 7 49 -113 c104 -239
211 -404 356 -550 175 -176 325 -249 520 -255 162 -4 284 35 429 136 116 82
256 242 355 407 49 83 166 326 166 347 0 26 23 29 117 16 112 -16 388 -21 473
-9 118 16 134 19 215 40 229 59 426 210 507 389 140 306 35 721 -293 1151
l-60 80 40 52 c23 28 44 57 49 62 43 54 145 223 192 320 161 331 176 612 47
844 -43 77 -167 199 -249 245 -114 64 -237 104 -383 128 -97 15 -370 17 -495
2 -63 -7 -122 -13 -131 -13 -10 -1 -24 20 -39 57 -51 127 -186 376 -242 447
-159 203 -307 324 -460 376 -89 30 -92 30 -203 34 -80 3 -116 -1 -180 -19z
m239 -287 c183 -42 360 -230 512 -543 30 -61 54 -116 54 -121 0 -6 -62 -28
-137 -50 -76 -21 -145 -42 -153 -46 -8 -4 -80 -30 -160 -59 -80 -29 -149 -56
-154 -61 -17 -16 -39 -10 -166 40 -123 48 -369 129 -462 152 -27 6 -48 17 -48
24 0 22 133 277 185 355 61 91 183 216 249 255 99 58 190 75 280 54z m-1178
-894 l61 -7 -33 -132 c-18 -72 -36 -151 -39 -176 -4 -24 -8 -47 -10 -50 -2 -3
-6 -21 -9 -40 -3 -19 -7 -44 -10 -55 -2 -11 -7 -42 -10 -70 -21 -154 -17 -144
-78 -190 -53 -41 -250 -206 -279 -234 -8 -9 -51 -51 -96 -95 l-81 -78 -58 81
c-133 184 -216 360 -247 523 -56 301 108 474 503 531 41 6 320 0 386 -8z
m2630 3 c5 -3 31 -9 58 -12 163 -22 315 -113 374 -223 52 -99 59 -201 22 -351
-34 -137 -171 -395 -272 -514 l-23 -27 -110 106 c-111 107 -229 209 -342 297
-34 27 -62 51 -61 55 1 3 -1 29 -6 56 -4 28 -9 61 -11 75 -8 54 -15 96 -19
115 -2 11 -11 58 -20 105 -9 47 -29 134 -45 195 -17 60 -29 111 -27 112 15 16
458 25 482 11z m-2214 -82 c75 -19 198 -55 228 -66 14 -5 38 -14 55 -20 l29
-11 -69 -36 c-82 -42 -259 -144 -330 -190 -27 -18 -51 -29 -53 -23 -2 5 4 43
13 82 9 40 18 82 21 93 5 30 48 185 51 185 1 0 26 -6 55 -14z m1462 -88 c15
-57 29 -114 31 -128 3 -14 10 -46 16 -72 6 -26 9 -52 7 -58 -1 -5 -26 6 -55
25 -29 19 -55 35 -57 35 -3 0 -29 15 -58 34 -51 32 -104 62 -215 122 -29 15
-53 31 -53 34 0 8 313 106 346 109 6 1 23 -45 38 -101z m-650 -217 c221 -108
487 -262 671 -389 101 -69 96 -64 100 -98 23 -187 23 -840 0 -959 -2 -11 -4
-25 -4 -32 -1 -11 -312 -223 -328 -223 -5 0 -14 -5 -21 -12 -22 -22 -281 -163
-438 -239 l-105 -50 -136 67 c-139 69 -306 160 -428 234 -132 80 -325 212
-326 224 -1 6 -3 22 -5 36 -18 137 -23 561 -10 785 9 172 12 195 22 204 45 39
269 183 429 276 89 52 443 235 454 235 3 0 59 -27 125 -59z m-1338 -970 l0
-259 -36 28 c-19 16 -82 73 -138 129 l-104 100 74 73 c60 60 198 188 203 188
0 0 1 -117 1 -259z m2498 200 c27 -26 85 -81 129 -124 l81 -77 -81 -78 c-44
-42 -100 -95 -124 -117 -82 -75 -75 -95 -75 195 0 177 3 257 11 252 5 -3 32
-26 59 -51z m-2805 -591 c32 -31 168 -147 216 -185 28 -22 52 -42 55 -45 3 -3
22 -18 42 -33 21 -15 37 -31 36 -35 -1 -4 1 -29 6 -57 4 -27 10 -66 12 -85 9
-68 56 -294 83 -402 15 -60 25 -111 22 -113 -18 -10 -104 -17 -241 -20 -480
-9 -723 147 -712 455 6 168 108 403 272 625 l42 57 76 -73 c42 -41 83 -81 91
-89z m3259 95 c4 -5 25 -37 46 -70 21 -33 47 -71 56 -85 10 -14 38 -68 63
-120 146 -301 131 -538 -42 -664 -78 -58 -165 -90 -326 -122 -79 -15 -469 -8
-492 10 -1 1 7 33 18 71 11 39 22 83 24 98 3 16 14 66 25 110 10 45 28 145 40
222 12 77 25 148 28 157 4 9 48 49 97 88 117 93 197 164 315 277 l95 93 23
-28 c12 -15 26 -31 30 -37z m-2450 -697 c51 -32 95 -58 97 -58 3 0 40 -21 194
-108 l45 -25 -60 -19 c-74 -24 -296 -88 -305 -88 -9 0 -74 257 -86 339 -4 26
-2 32 9 25 7 -4 55 -34 106 -66z m1538 33 c-5 -37 -75 -323 -80 -328 -4 -4
-184 44 -280 75 l-89 29 44 25 c24 14 89 50 144 81 55 31 136 78 180 106 44
28 82 50 83 51 2 0 1 -17 -2 -39z m-716 -442 c146 -57 339 -122 443 -149 48
-13 87 -28 87 -34 0 -24 -121 -256 -177 -341 -61 -92 -159 -200 -226 -249 -81
-59 -145 -81 -238 -81 -78 0 -91 3 -162 38 -149 73 -297 251 -418 501 -32 66
-59 126 -59 132 0 6 39 21 88 34 109 29 374 119 467 159 39 17 75 30 80 31 6
0 57 -19 115 -41z"/>
<path d="M2489 3079 c-190 -26 -350 -155 -420 -339 -126 -332 126 -697 483
-702 286 -4 526 226 530 509 2 87 -6 129 -39 212 -86 218 -316 351 -554 320z
m166 -316 c178 -89 166 -343 -19 -412 -148 -55 -299 55 -298 215 1 158 177
267 317 197z"/>
</g>
</svg>
